<svg xmlns="http://www.w3.org/2000/svg" viewBox="0 0 38 57" role="img" aria-label="Figma">
  <path fill="#F24E1E" d="M1 9.5A8.5 8.5 0 0 1 9.5 1H18v17H9.5A8.5 8.5 0 0 1 1 9.5Z"/>
  <path fill="#FF7262" d="M18 1h8.5a8.5 8.5 0 0 1 0 17H18V1Z"/>
  <path fill="#A259FF" d="M1 26.5A8.5 8.5 0 0 1 9.5 18H18v17H9.5A8.5 8.5 0 0 1 1 26.5Z"/>
  <path fill="#1ABCFE" d="M35 26.5a8.5 8.5 0 1 1-17 0 8.5 8.5 0 0 1 17 0Z"/>
  <path fill="#0ACF83" d="M1 43.5A8.5 8.5 0 0 1 9.5 35H18v8.5a8.5 8.5 0 0 1-17 0Z"/>
</svg>
