<!-- <svg xmlns="http://www.w3.org/2000/svg" xmlns:xlink="http://www.w3.org/1999/xlink" width="300" zoomAndPan="magnify" viewBox="0 0 224.87999 225" height="300" preserveAspectRatio="xMidYMid meet" version="1.0"><defs><clipPath id="add514309a"><path d="M 9 15 L 209 15 L 209 224.9375 L 9 224.9375 Z M 9 15 " clip-rule="nonzero"/></clipPath></defs><g clip-path="url(#add514309a)"><path fill="#222222" d="M 38.371094 109.824219 C 57.113281 128.5625 70.5 147.304688 83.882812 171.398438 C 146.351562 53.601562 222.203125 0.0585938 206.140625 18.800781 C 155.273438 83.945312 120.472656 149.980469 86.5625 224.941406 C 66.929688 189.246094 41.941406 141.949219 11.601562 132.132812 C 2.675781 123.207031 24.09375 101.792969 38.371094 109.824219 Z M 38.371094 109.824219 " fill-opacity="1" fill-rule="nonzero"/></g></svg> -->
<svg class="w-[30px] h-[30px] text-gray-800 dark:text-white" aria-hidden="true" xmlns="http://www.w3.org/2000/svg" width="24" height="24" fill="orange" viewBox="0 0 24 24">
  <path d="m3 2 1.578 17.824L12 22l7.467-2.175L21 2H3Zm14.049 6.048H9.075l.172 2.016h7.697l-.626 6.565-4.246 1.381-4.281-1.455-.288-2.932h2.024l.16 1.411 2.4.815 2.346-.763.297-3.005H7.416l-.562-6.05h10.412l-.217 2.017Z"/>
</svg>
